<svg data-v-29081953="" xmlns="http://www.w3.org/2000/svg" viewBox="0 0 300 300"><!----><defs data-v-29081953=""><linearGradient data-v-29081953="" gradientTransform="rotate(25)" id="408713e2-5c80-47c2-bfd0-060e85892228" x1="0%" y1="0%" x2="100%" y2="0%"><stop data-v-29081953="" offset="0%" stop-color="#4B279B" stop-opacity="1"></stop><stop data-v-29081953="" offset="100%" stop-color="#DF99D8" stop-opacity="1"></stop></linearGradient></defs><rect data-v-29081953="" fill="url(#408713e2-5c80-47c2-bfd0-060e85892228)" x="0" y="0" width="300px" height="300px" class="logo-background-square"></rect><defs data-v-29081953=""><!----></defs><g data-v-29081953="" id="3fa48c41-5ace-462b-be6e-b8bab0a743b1" fill="#ffffff" transform="matrix(2.485422029280363,0,0,2.485422029280363,19.03068537006356,158.00250589633532)"><path d="M3.93 10.50L3.93 9.34L2.80 9.34L2.80 1.16L3.78 1.16L3.78 0L0.50 0L0.50 1.16L2.06 1.16L2.06 1.26L1.53 1.58L1.53 9.34L0.39 9.34L0.39 10.50ZM5.32 10.50L6.59 10.50L6.59 5.46L6.44 2.25L6.48 2.25L7.39 5.35L9.03 10.50L10.39 10.50L10.39 0.04L9.11 0.04L9.11 3.72L9.35 7.71L9.31 7.71L8.23 3.79L7.04 0.04L5.32 0.04ZM13.69 9.23L13.69 1.32L15.23 1.32L16.06 2.13L16.06 8.40L15.23 9.23ZM12.42 10.50C13.52 10.50 14.64 10.50 15.76 10.50L17.33 8.92L17.33 1.61L15.76 0.04L12.42 0.04ZM20.48 10.50L20.48 0C19.39 0 20.30 0 19.21 0L19.21 10.50ZM23.80 4.68L23.80 1.29L26.82 1.29L26.82 0.01C25.13 0.01 24.22 0.01 22.53 0.01L22.53 10.50L27.02 10.50L27.02 9.23L23.80 9.23L23.80 5.95L26.33 5.95L26.33 4.68ZM36.76 10.49L38.04 10.49L38.04 0.01L35.53 0.01L34.93 4.17L34.55 7.77L34.51 7.77L34.12 4.12L33.52 0.01C32.38 0.01 32.14 0.01 31.01 0.01L31.01 10.49L32.28 10.49L32.28 1.26L32.44 1.26L33.71 9.60L35.34 9.60L36.61 1.26L36.76 1.26ZM39.30 10.50L40.59 10.50L40.99 7.77L43.18 7.77L43.58 10.50L44.87 10.50L43.32 0.01L40.85 0.01ZM42.99 6.50L41.17 6.50L41.94 1.29L42.21 1.29ZM47.52 0.04L46.24 0.04L46.24 10.50L47.52 10.50L47.52 5.53L48.19 5.53L50.51 10.50L51.91 10.50L49.29 4.90L51.59 0.04L50.19 0.04L48.19 4.26L47.52 4.26ZM54.32 4.68L54.32 1.29L57.34 1.29L57.34 0.01C55.65 0.01 54.74 0.01 53.05 0.01L53.05 10.50L57.54 10.50L57.54 9.23L54.32 9.23L54.32 5.95L56.85 5.95L56.85 4.68ZM60.03 1.30L61.32 1.30L62.17 2.16L62.17 4.76L61.31 5.70L60.03 5.70ZM60.03 6.97L61.14 6.97L62.78 10.50L64.18 10.50L62.31 6.48L63.45 5.26L63.45 1.64L61.84 0.01L58.76 0.01L58.76 10.50L60.03 10.50ZM69.20 4.93L69.20 1.32L72.21 1.32L72.21 0.06C70.52 0.06 69.62 0.06 67.93 0.06L67.93 10.50C68.36 10.50 68.78 10.50 69.20 10.50L69.20 6.20L71.72 6.20L71.72 4.93ZM74.93 1.30L76.22 1.30L77.07 2.16L77.07 4.76L76.20 5.70L74.93 5.70ZM74.93 6.97L76.03 6.97L77.67 10.50L79.07 10.50L77.21 6.48L78.34 5.26L78.34 1.64L76.73 0.01L73.65 0.01L73.65 10.50L74.93 10.50ZM79.73 10.50L81.02 10.50L81.42 7.77L83.61 7.77L84.01 10.50L85.30 10.50L83.75 0.01L81.28 0.01ZM83.43 6.50L81.61 6.50L82.38 1.29L82.64 1.29ZM86.65 10.50L87.92 10.50L87.92 5.46L87.77 2.25L87.81 2.25L88.72 5.35L90.36 10.50L91.71 10.50L91.71 0.04L90.44 0.04L90.44 3.72L90.68 7.71L90.64 7.71L89.56 3.79L88.37 0.04L86.65 0.04ZM97.44 3.09L98.71 3.09L98.71 1.51L97.19-0.08L95.20-0.08L93.67 1.51L93.67 8.88L95.19 10.57L97.19 10.57L98.71 8.88L98.71 7.22L97.44 7.24L97.44 8.40L96.63 9.30L95.75 9.30L94.95 8.40L94.95 2.02L95.73 1.19L96.64 1.19L97.44 2.02ZM101.78 4.68L101.78 1.29L104.80 1.29L104.80 0.01C103.11 0.01 102.20 0.01 100.51 0.01L100.51 10.50L105 10.50L105 9.23L101.78 9.23L101.78 5.95L104.31 5.95L104.31 4.68Z"></path></g><defs data-v-29081953=""><!----></defs><g data-v-29081953="" id="f4b124f7-8d20-4a31-acf0-984b4dfa1e13" stroke="none" fill="#ffffff" transform="matrix(0.4637325576899197,0,0,0.4637325576899197,126.81360341216508,96.49661579594121)"><path d="M34.763 43.085L49.638 28.21l50.304 50.303-14.876 14.875zM19.75 43.189l4.147-4.147 5.665 1.518 31.64-31.64-28.388-2.312L14.212 25.21l1.519 5.665-4.148 4.147-5.664-1.519-5.862 5.862 15.364 15.334 5.847-5.846z"></path></g><defs data-v-29081953=""><!----></defs><g data-v-29081953="" id="7700c43a-9d7a-4ca9-8839-686337041f1e" fill="#ffffff" transform="matrix(0.649696842507265,0,0,0.649696842507265,51.7658425710648,192.9090524763366)"><path d="M5.04 2.21L1.13 2.21L1.13 11.48L5.04 11.48C7.25 11.48 9.30 9.74 9.30 6.85C9.30 3.95 7.25 2.21 5.04 2.21ZM5.00 10.49L2.18 10.49L2.18 3.21L5.00 3.21C6.97 3.21 8.25 4.86 8.25 6.85C8.25 8.83 6.97 10.49 5.00 10.49ZM24.81 3.22L24.81 2.21L17.99 2.21L17.99 11.48L24.81 11.48L24.81 10.47L19.04 10.47L19.04 7.35L24.19 7.35L24.19 6.33L19.04 6.33L19.04 3.22ZM34.01 4.65C34.01 4.03 34.37 3.08 36.47 3.08C38.16 3.08 38.95 3.82 39.06 4.75L40.14 4.75C40.05 3.36 38.93 2.10 36.47 2.10C34.15 2.10 32.98 3.15 32.98 4.66C32.98 7.84 39.33 6.69 39.33 8.96C39.33 10.05 38.35 10.60 36.78 10.60C35.17 10.60 33.87 10.05 33.80 8.71L32.70 8.71C32.84 10.37 33.96 11.59 36.71 11.59C38.99 11.59 40.38 10.64 40.38 8.92C40.38 5.68 34.01 6.80 34.01 4.65ZM60.03 2.21L58.98 2.21L58.98 11.48L60.03 11.48ZM73.21 2.21L69.30 2.21L69.30 11.48L73.21 11.48C75.42 11.48 77.46 9.74 77.46 6.85C77.46 3.95 75.42 2.21 73.21 2.21ZM73.16 10.49L70.35 10.49L70.35 3.21L73.16 3.21C75.14 3.21 76.41 4.86 76.41 6.85C76.41 8.83 75.14 10.49 73.16 10.49ZM92.97 3.22L92.97 2.21L86.16 2.21L86.16 11.48L92.97 11.48L92.97 10.47L87.21 10.47L87.21 7.35L92.36 7.35L92.36 6.33L87.21 6.33L87.21 3.22ZM108.49 3.22L108.49 2.21L101.67 2.21L101.67 11.48L108.49 11.48L108.49 10.47L102.72 10.47L102.72 7.35L107.87 7.35L107.87 6.33L102.72 6.33L102.72 3.22ZM117.68 4.65C117.68 4.03 118.05 3.08 120.15 3.08C121.84 3.08 122.63 3.82 122.74 4.75L123.82 4.75C123.73 3.36 122.61 2.10 120.15 2.10C117.82 2.10 116.66 3.15 116.66 4.66C116.66 7.84 123.00 6.69 123.00 8.96C123.00 10.05 122.02 10.60 120.46 10.60C118.85 10.60 117.54 10.05 117.47 8.71L116.38 8.71C116.52 10.37 117.64 11.59 120.39 11.59C122.67 11.59 124.05 10.64 124.05 8.92C124.05 5.68 117.68 6.80 117.68 4.65ZM143.71 8.18L146.83 8.18C148.81 8.18 150.02 7.03 150.02 5.19C150.02 3.37 148.81 2.21 146.83 2.21L142.66 2.21L142.66 11.48L143.71 11.48ZM146.76 3.21C148.22 3.21 148.97 3.96 148.97 5.19C148.97 6.44 148.22 7.20 146.76 7.20L143.71 7.20L143.71 3.21ZM159.50 7.92L162.72 7.92L164.96 11.48L166.21 11.48L163.77 7.74C164.81 7.50 166.01 6.90 166.01 5.11C166.01 3.35 164.79 2.21 162.89 2.21L158.45 2.21L158.45 11.48L159.50 11.48ZM159.50 3.21L162.76 3.21C164.08 3.21 164.96 3.93 164.96 5.11C164.96 6.55 163.70 6.93 162.71 6.93L159.50 6.93ZM178.93 2.10C176.12 2.10 174.23 4.21 174.23 6.85C174.23 9.48 176.12 11.59 178.93 11.59C181.75 11.59 183.64 9.48 183.64 6.85C183.64 4.21 181.75 2.10 178.93 2.10ZM178.93 10.57C176.68 10.57 175.28 8.93 175.28 6.85C175.28 4.76 176.68 3.12 178.93 3.12C181.19 3.12 182.59 4.76 182.59 6.85C182.59 8.93 181.19 10.57 178.93 10.57ZM199.01 3.22L199.01 2.21L192.32 2.21L192.32 11.48L193.37 11.48L193.37 7.46L198.39 7.46L198.39 6.44L193.37 6.44L193.37 3.22ZM208.53 2.21L207.48 2.21L207.48 11.48L208.53 11.48ZM224.38 2.21L216.86 2.21L216.86 3.22L220.09 3.22L220.09 11.48L221.14 11.48L221.14 3.22L224.38 3.22ZM236.04 2.21L234.72 2.21L230.79 11.48L231.95 11.48L233.09 8.79L237.68 8.79L238.81 11.48L239.97 11.48ZM233.49 7.83L235.38 3.30L237.27 7.83ZM253.99 6.75C254.65 6.45 255.23 5.85 255.23 4.66C255.23 3.54 254.49 2.21 252.31 2.21L248.15 2.21L248.15 11.48L252.55 11.48C254.66 11.48 255.71 10.43 255.71 9.04C255.71 7.66 254.77 7 253.99 6.75ZM249.20 3.21L252.42 3.21C253.69 3.21 254.18 3.98 254.18 4.75C254.18 5.88 253.27 6.36 252.31 6.36L249.20 6.36ZM252.66 10.49L249.20 10.49L249.20 7.31L252.55 7.31C254.02 7.31 254.66 8.09 254.66 8.96C254.66 9.93 253.93 10.49 252.66 10.49ZM264.42 2.21L264.42 11.48L270.52 11.48L270.52 10.47L265.47 10.47L265.47 2.21ZM285.70 3.22L285.70 2.21L278.88 2.21L278.88 11.48L285.70 11.48L285.70 10.47L279.93 10.47L279.93 7.35L285.08 7.35L285.08 6.33L279.93 6.33L279.93 3.22ZM294.90 4.65C294.90 4.03 295.26 3.08 297.36 3.08C299.05 3.08 299.84 3.82 299.95 4.75L301.03 4.75C300.94 3.36 299.82 2.10 297.36 2.10C295.04 2.10 293.87 3.15 293.87 4.66C293.87 7.84 300.22 6.69 300.22 8.96C300.22 10.05 299.24 10.60 297.67 10.60C296.06 10.60 294.76 10.05 294.69 8.71L293.59 8.71C293.73 10.37 294.85 11.59 297.60 11.59C299.88 11.59 301.27 10.64 301.27 8.92C301.27 5.68 294.90 6.80 294.90 4.65Z"></path></g></svg>