<svg data-v-d3f97b9e="" xmlns="http://www.w3.org/2000/svg" viewBox="0 0 589.3521372245158 191"><!----><!----><!----><g data-v-d3f97b9e="" id="b1c96ba4-437f-45a9-a8e2-a642d29fb469" fill="black" transform="matrix(5.633803018697211,0,0,5.633803018697211,-2.1971877134115516,103.45070133041752)"><path d="M3.93 10.50L3.93 9.34L2.80 9.34L2.80 1.16L3.78 1.16L3.78 0L0.50 0L0.50 1.16L2.06 1.16L2.06 1.26L1.53 1.58L1.53 9.34L0.39 9.34L0.39 10.50ZM5.32 10.50L6.59 10.50L6.59 5.46L6.44 2.25L6.48 2.25L7.39 5.35L9.03 10.50L10.39 10.50L10.39 0.04L9.11 0.04L9.11 3.72L9.35 7.71L9.31 7.71L8.23 3.79L7.04 0.04L5.32 0.04ZM13.69 9.23L13.69 1.32L15.23 1.32L16.06 2.13L16.06 8.40L15.23 9.23ZM12.42 10.50C13.52 10.50 14.64 10.50 15.76 10.50L17.33 8.92L17.33 1.61L15.76 0.04L12.42 0.04ZM20.48 10.50L20.48 0C19.39 0 20.30 0 19.21 0L19.21 10.50ZM23.80 4.68L23.80 1.29L26.82 1.29L26.82 0.01C25.13 0.01 24.22 0.01 22.53 0.01L22.53 10.50L27.02 10.50L27.02 9.23L23.80 9.23L23.80 5.95L26.33 5.95L26.33 4.68ZM36.76 10.49L38.04 10.49L38.04 0.01L35.53 0.01L34.93 4.17L34.55 7.77L34.51 7.77L34.12 4.12L33.52 0.01C32.38 0.01 32.14 0.01 31.01 0.01L31.01 10.49L32.28 10.49L32.28 1.26L32.44 1.26L33.71 9.60L35.34 9.60L36.61 1.26L36.76 1.26ZM39.30 10.50L40.59 10.50L40.99 7.77L43.18 7.77L43.58 10.50L44.87 10.50L43.32 0.01L40.85 0.01ZM42.99 6.50L41.17 6.50L41.94 1.29L42.21 1.29ZM47.52 0.04L46.24 0.04L46.24 10.50L47.52 10.50L47.52 5.53L48.19 5.53L50.51 10.50L51.91 10.50L49.29 4.90L51.59 0.04L50.19 0.04L48.19 4.26L47.52 4.26ZM54.32 4.68L54.32 1.29L57.34 1.29L57.34 0.01C55.65 0.01 54.74 0.01 53.05 0.01L53.05 10.50L57.54 10.50L57.54 9.23L54.32 9.23L54.32 5.95L56.85 5.95L56.85 4.68ZM60.03 1.30L61.32 1.30L62.17 2.16L62.17 4.76L61.31 5.70L60.03 5.70ZM60.03 6.97L61.14 6.97L62.78 10.50L64.18 10.50L62.31 6.48L63.45 5.26L63.45 1.64L61.84 0.01L58.76 0.01L58.76 10.50L60.03 10.50ZM69.20 4.93L69.20 1.32L72.21 1.32L72.21 0.06C70.52 0.06 69.62 0.06 67.93 0.06L67.93 10.50C68.36 10.50 68.78 10.50 69.20 10.50L69.20 6.20L71.72 6.20L71.72 4.93ZM74.93 1.30L76.22 1.30L77.07 2.16L77.07 4.76L76.20 5.70L74.93 5.70ZM74.93 6.97L76.03 6.97L77.67 10.50L79.07 10.50L77.21 6.48L78.34 5.26L78.34 1.64L76.73 0.01L73.65 0.01L73.65 10.50L74.93 10.50ZM79.73 10.50L81.02 10.50L81.42 7.77L83.61 7.77L84.01 10.50L85.30 10.50L83.75 0.01L81.28 0.01ZM83.43 6.50L81.61 6.50L82.38 1.29L82.64 1.29ZM86.65 10.50L87.92 10.50L87.92 5.46L87.77 2.25L87.81 2.25L88.72 5.35L90.36 10.50L91.71 10.50L91.71 0.04L90.44 0.04L90.44 3.72L90.68 7.71L90.64 7.71L89.56 3.79L88.37 0.04L86.65 0.04ZM97.44 3.09L98.71 3.09L98.71 1.51L97.19-0.08L95.20-0.08L93.67 1.51L93.67 8.88L95.19 10.57L97.19 10.57L98.71 8.88L98.71 7.22L97.44 7.24L97.44 8.40L96.63 9.30L95.75 9.30L94.95 8.40L94.95 2.02L95.73 1.19L96.64 1.19L97.44 2.02ZM101.78 4.68L101.78 1.29L104.80 1.29L104.80 0.01C103.11 0.01 102.20 0.01 100.51 0.01L100.51 10.50L105 10.50L105 9.23L101.78 9.23L101.78 5.95L104.31 5.95L104.31 4.68Z"></path></g><!----><g data-v-d3f97b9e="" id="e4a3794c-c0a9-4438-9f94-1c881340313f" transform="matrix(1.0371053383959177,0,0,1.0371053383959177,243.20224670448312,-6.245192139532669)" stroke="none" fill="black"><path d="M34.763 43.085L49.638 28.21l50.304 50.303-14.876 14.875zM19.75 43.189l4.147-4.147 5.665 1.518 31.64-31.64-28.388-2.312L14.212 25.21l1.519 5.665-4.148 4.147-5.664-1.519-5.862 5.862 15.364 15.334 5.847-5.846z"></path></g><!----><g data-v-d3f97b9e="" id="250e944d-c3f0-4f3f-9058-2048c634890f" fill="black" transform="matrix(1.6340632270550346,0,0,1.6340632270550346,73.06721620511863,195.73090633695682)"><path d="M4.37 3.78L4.37 3.78Q6.58 3.78 7.78 4.95L7.78 4.95L7.78 4.95Q8.97 6.12 8.97 8.33L8.97 8.33L8.97 8.33Q8.97 10.60 7.78 11.81L7.78 11.81L7.78 11.81Q6.58 13.02 4.37 13.02L4.37 13.02L1.46 13.02L1.46 3.78L4.37 3.78ZM4.42 12.38L4.42 12.38Q6.27 12.38 7.26 11.33L7.26 11.33L7.26 11.33Q8.25 10.29 8.25 8.33L8.25 8.33L8.25 8.33Q8.25 6.45 7.26 5.44L7.26 5.44L7.26 5.44Q6.27 4.42 4.42 4.42L4.42 4.42L2.16 4.42L2.16 12.38L4.42 12.38ZM19.01 12.38L24.85 12.38L24.85 13.02L18.31 13.02L18.31 3.78L24.63 3.78L24.63 4.42L19.01 4.42L19.01 7.99L23.45 7.99L23.45 8.65L19.01 8.65L19.01 12.38ZM36.74 3.64L36.74 3.64Q39.34 3.64 40.22 5.68L40.22 5.68L39.62 6.17L39.62 6.17Q39.27 5.18 38.58 4.73L38.58 4.73L38.58 4.73Q37.88 4.28 36.75 4.28L36.75 4.28L36.75 4.28Q35.94 4.28 35.34 4.54L35.34 4.54L35.34 4.54Q34.73 4.79 34.42 5.22L34.42 5.22L34.42 5.22Q34.10 5.66 34.10 6.20L34.10 6.20L34.10 6.20Q34.10 6.73 34.37 7.08L34.37 7.08L34.37 7.08Q34.64 7.43 35.27 7.68L35.27 7.68L35.27 7.68Q35.91 7.92 37.03 8.12L37.03 8.12L37.03 8.12Q38.84 8.43 39.59 9.02L39.59 9.02L39.59 9.02Q40.35 9.60 40.35 10.64L40.35 10.64L40.35 10.64Q40.35 11.38 39.91 11.96L39.91 11.96L39.91 11.96Q39.48 12.53 38.69 12.84L38.69 12.84L38.69 12.84Q37.90 13.16 36.88 13.16L36.88 13.16L36.88 13.16Q35.42 13.16 34.42 12.58L34.42 12.58L34.42 12.58Q33.42 12.00 33.05 10.95L33.05 10.95L33.67 10.47L33.67 10.47Q33.95 11.47 34.80 11.99L34.80 11.99L34.80 11.99Q35.64 12.52 36.89 12.52L36.89 12.52L36.89 12.52Q38.09 12.52 38.86 12.03L38.86 12.03L38.86 12.03Q39.62 11.54 39.62 10.68L39.62 10.68L39.62 10.68Q39.62 9.94 39.00 9.51L39.00 9.51L39.00 9.51Q38.37 9.07 36.83 8.81L36.83 8.81L36.83 8.81Q35.53 8.58 34.78 8.26L34.78 8.26L34.78 8.26Q34.02 7.94 33.69 7.46L33.69 7.46L33.69 7.46Q33.36 6.99 33.36 6.27L33.36 6.27L33.36 6.27Q33.36 5.56 33.77 4.96L33.77 4.96L33.77 4.96Q34.19 4.35 34.95 4.00L34.95 4.00L34.95 4.00Q35.71 3.64 36.74 3.64L36.74 3.64ZM61.63 3.78L61.63 13.02L60.93 13.02L60.93 3.78L61.63 3.78ZM74.45 3.78L74.45 3.78Q76.66 3.78 77.86 4.95L77.86 4.95L77.86 4.95Q79.06 6.12 79.06 8.33L79.06 8.33L79.06 8.33Q79.06 10.60 77.86 11.81L77.86 11.81L77.86 11.81Q76.66 13.02 74.45 13.02L74.45 13.02L71.54 13.02L71.54 3.78L74.45 3.78ZM74.51 12.38L74.51 12.38Q76.36 12.38 77.34 11.33L77.34 11.33L77.34 11.33Q78.33 10.29 78.33 8.33L78.33 8.33L78.33 8.33Q78.33 6.45 77.34 5.44L77.34 5.44L77.34 5.44Q76.36 4.42 74.51 4.42L74.51 4.42L72.24 4.42L72.24 12.38L74.51 12.38ZM89.10 12.38L94.93 12.38L94.93 13.02L88.40 13.02L88.40 3.78L94.71 3.78L94.71 4.42L89.10 4.42L89.10 7.99L93.53 7.99L93.53 8.65L89.10 8.65L89.10 12.38ZM104.66 12.38L110.50 12.38L110.50 13.02L103.96 13.02L103.96 3.78L110.28 3.78L110.28 4.42L104.66 4.42L104.66 7.99L109.10 7.99L109.10 8.65L104.66 8.65L104.66 12.38ZM133.98 3.78L133.98 3.78Q135.42 3.78 136.27 4.50L136.27 4.50L136.27 4.50Q137.12 5.22 137.12 6.48L137.12 6.48L137.12 6.48Q137.12 7.74 136.27 8.47L136.27 8.47L136.27 8.47Q135.42 9.20 133.98 9.20L133.98 9.20L131.61 9.20L131.61 13.02L130.91 13.02L130.91 3.78L133.98 3.78ZM133.90 8.54L133.90 8.54Q135.10 8.54 135.74 8.01L135.74 8.01L135.74 8.01Q136.37 7.48 136.37 6.48L136.37 6.48L136.37 6.48Q136.37 5.50 135.74 4.96L135.74 4.96L135.74 4.96Q135.10 4.42 133.90 4.42L133.90 4.42L131.61 4.42L131.61 8.54L133.90 8.54ZM153.08 13.02L152.25 13.02L149.60 9.02L149.56 9.02L146.83 9.02L146.83 13.02L146.13 13.02L146.13 3.78L149.56 3.78L149.56 3.78Q150.95 3.78 151.77 4.48L151.77 4.48L151.77 4.48Q152.59 5.18 152.59 6.40L152.59 6.40L152.59 6.40Q152.59 7.41 152.00 8.07L152.00 8.07L152.00 8.07Q151.41 8.74 150.39 8.93L150.39 8.93L153.08 13.02ZM146.83 4.42L146.83 8.36L149.55 8.36L149.55 8.36Q150.67 8.36 151.26 7.85L151.26 7.85L151.26 7.85Q151.86 7.35 151.86 6.40L151.86 6.40L151.86 6.40Q151.86 5.45 151.26 4.93L151.26 4.93L151.26 4.93Q150.67 4.42 149.55 4.42L149.55 4.42L146.83 4.42ZM165.72 3.64L165.72 3.64Q167.02 3.64 167.98 4.22L167.98 4.22L167.98 4.22Q168.94 4.80 169.46 5.87L169.46 5.87L169.46 5.87Q169.97 6.94 169.97 8.40L169.97 8.40L169.97 8.40Q169.97 9.86 169.46 10.93L169.46 10.93L169.46 10.93Q168.94 12.00 167.98 12.58L167.98 12.58L167.98 12.58Q167.02 13.16 165.72 13.16L165.72 13.16L165.72 13.16Q164.42 13.16 163.46 12.58L163.46 12.58L163.46 12.58Q162.50 12.00 161.98 10.93L161.98 10.93L161.98 10.93Q161.46 9.86 161.46 8.40L161.46 8.40L161.46 8.40Q161.46 6.94 161.98 5.87L161.98 5.87L161.98 5.87Q162.50 4.80 163.46 4.22L163.46 4.22L163.46 4.22Q164.42 3.64 165.72 3.64L165.72 3.64ZM165.72 4.28L165.72 4.28Q164.64 4.28 163.85 4.78L163.85 4.78L163.85 4.78Q163.06 5.28 162.63 6.21L162.63 6.21L162.63 6.21Q162.20 7.14 162.20 8.40L162.20 8.40L162.20 8.40Q162.20 9.66 162.63 10.59L162.63 10.59L162.63 10.59Q163.06 11.52 163.85 12.02L163.85 12.02L163.85 12.02Q164.64 12.52 165.72 12.52L165.72 12.52L165.72 12.52Q166.80 12.52 167.59 12.02L167.59 12.02L167.59 12.02Q168.39 11.52 168.82 10.59L168.82 10.59L168.82 10.59Q169.25 9.66 169.25 8.40L169.25 8.40L169.25 8.40Q169.25 7.14 168.82 6.21L168.82 6.21L168.82 6.21Q168.39 5.28 167.59 4.78L167.59 4.78L167.59 4.78Q166.80 4.28 165.72 4.28L165.72 4.28ZM185.60 4.42L180.00 4.42L180.00 7.99L184.44 7.99L184.44 8.65L180.00 8.65L180.00 13.02L179.30 13.02L179.30 3.78L185.60 3.78L185.60 4.42ZM195.17 3.78L195.17 13.02L194.47 13.02L194.47 3.78L195.17 3.78ZM211.39 3.78L211.39 4.42L208.01 4.42L208.01 13.02L207.31 13.02L207.31 4.42L203.94 4.42L203.94 3.78L211.39 3.78ZM225.11 13.02L223.94 10.12L219.52 10.12L218.37 13.02L217.63 13.02L221.33 3.78L222.15 3.78L225.85 13.02L225.11 13.02ZM219.79 9.48L223.69 9.48L222.08 5.45L221.75 4.47L221.73 4.47L221.40 5.42L219.79 9.48ZM234.57 13.02L234.57 3.78L237.83 3.78L237.83 3.78Q239.34 3.78 240.09 4.41L240.09 4.41L240.09 4.41Q240.84 5.04 240.84 6.23L240.84 6.23L240.84 6.23Q240.84 7.04 240.40 7.60L240.40 7.60L240.40 7.60Q239.96 8.16 239.15 8.33L239.15 8.33L239.15 8.34L239.15 8.34Q240.04 8.48 240.57 9.07L240.57 9.07L240.57 9.07Q241.09 9.66 241.09 10.53L241.09 10.53L241.09 10.53Q241.09 11.72 240.25 12.37L240.25 12.37L240.25 12.37Q239.40 13.02 237.83 13.02L237.83 13.02L234.57 13.02ZM235.27 8.04L237.85 8.04L237.85 8.04Q240.10 8.04 240.10 6.23L240.10 6.23L240.10 6.23Q240.10 4.42 237.85 4.42L237.85 4.42L235.27 4.42L235.27 8.04ZM235.27 12.38L237.97 12.38L237.97 12.38Q239.15 12.38 239.75 11.90L239.75 11.90L239.75 11.90Q240.35 11.42 240.35 10.53L240.35 10.53L240.35 10.53Q240.35 9.62 239.75 9.15L239.75 9.15L239.75 9.15Q239.15 8.68 237.97 8.68L237.97 8.68L235.27 8.68L235.27 12.38ZM251.12 12.38L256.66 12.38L256.66 13.02L250.42 13.02L250.42 3.78L251.12 3.78L251.12 12.38ZM266.13 12.38L271.96 12.38L271.96 13.02L265.43 13.02L265.43 3.78L271.74 3.78L271.74 4.42L266.13 4.42L266.13 7.99L270.56 7.99L270.56 8.65L266.13 8.65L266.13 12.38Z"></path></g></svg>