<svg data-v-423bf9ae="" xmlns="http://www.w3.org/2000/svg" viewBox="0 0 394.26151113147847 60" class="font"><!----><!----><!----><g data-v-423bf9ae="" id="7d0846e3-0a8b-4315-909b-3e35af185f3a" fill="white" transform="matrix(5.644402573287807,0,0,5.644402573287807,-2.2013232821659017,0.33866506192424595)"><path d="M3.93 10.50L3.93 9.34L2.80 9.34L2.80 1.16L3.78 1.16L3.78 0L0.50 0L0.50 1.16L2.06 1.16L2.06 1.26L1.53 1.58L1.53 9.34L0.39 9.34L0.39 10.50ZM5.32 10.50L6.59 10.50L6.59 5.46L6.44 2.25L6.48 2.25L7.39 5.35L9.03 10.50L10.39 10.50L10.39 0.04L9.11 0.04L9.11 3.72L9.35 7.71L9.31 7.71L8.23 3.79L7.04 0.04L5.32 0.04ZM13.69 9.23L13.69 1.32L15.23 1.32L16.06 2.13L16.06 8.40L15.23 9.23ZM12.42 10.50C13.52 10.50 14.64 10.50 15.76 10.50L17.33 8.92L17.33 1.61L15.76 0.04L12.42 0.04ZM20.48 10.50L20.48 0C19.39 0 20.30 0 19.21 0L19.21 10.50ZM23.80 4.68L23.80 1.29L26.82 1.29L26.82 0.01C25.13 0.01 24.22 0.01 22.53 0.01L22.53 10.50L27.02 10.50L27.02 9.23L23.80 9.23L23.80 5.95L26.33 5.95L26.33 4.68ZM36.76 10.49L38.04 10.49L38.04 0.01L35.53 0.01L34.93 4.17L34.55 7.77L34.51 7.77L34.12 4.12L33.52 0.01C32.38 0.01 32.14 0.01 31.01 0.01L31.01 10.49L32.28 10.49L32.28 1.26L32.44 1.26L33.71 9.60L35.34 9.60L36.61 1.26L36.76 1.26ZM39.30 10.50L40.59 10.50L40.99 7.77L43.18 7.77L43.58 10.50L44.87 10.50L43.32 0.01L40.85 0.01ZM42.99 6.50L41.17 6.50L41.94 1.29L42.21 1.29ZM47.52 0.04L46.24 0.04L46.24 10.50L47.52 10.50L47.52 5.53L48.19 5.53L50.51 10.50L51.91 10.50L49.29 4.90L51.59 0.04L50.19 0.04L48.19 4.26L47.52 4.26ZM54.32 4.68L54.32 1.29L57.34 1.29L57.34 0.01C55.65 0.01 54.74 0.01 53.05 0.01L53.05 10.50L57.54 10.50L57.54 9.23L54.32 9.23L54.32 5.95L56.85 5.95L56.85 4.68ZM60.03 1.30L61.32 1.30L62.17 2.16L62.17 4.76L61.31 5.70L60.03 5.70ZM60.03 6.97L61.14 6.97L62.78 10.50L64.18 10.50L62.31 6.48L63.45 5.26L63.45 1.64L61.84 0.01L58.76 0.01L58.76 10.50L60.03 10.50ZM66.42 7.03L65.16 7.03L65.16 8.95L66.70 10.57L68.70 10.57L70.24 8.95L70.24 6.12L66.49 3.49L66.49 2.03L67.26 1.20L68.14 1.20L68.92 2.03L68.92 3.12L70.18 3.12L70.18 1.51L68.68-0.06L66.72-0.06L65.23 1.51L65.23 4.14L68.99 6.78L68.99 8.44L68.17 9.31L67.24 9.31L66.42 8.44Z"></path></g><!----><!----></svg>